<?xml version="1.0" encoding="utf-8"?>
<!-- Generator: Adobe Illustrator 16.0.0, SVG Export Plug-In . SVG Version: 6.00 Build 0)  -->
<!DOCTYPE svg PUBLIC "-//W3C//DTD SVG 1.1//EN" "http://www.w3.org/Graphics/SVG/1.1/DTD/svg11.dtd">
<svg version="1.1" id="Layer_1" xmlns="http://www.w3.org/2000/svg" xmlns:xlink="http://www.w3.org/1999/xlink" x="0px" y="0px"
	 width="1031.811px" height="728.5px" viewBox="0 0 1031.811 728.5" enable-background="new 0 0 1031.811 728.5"
	 xml:space="preserve">
<g>
	<path fill="#010202" d="M87.002,338.826l3.023,109.454H29.017V254.546h85.466l35.176,104.255h1.374l30.504-104.255h88.214V448.28
		H206.27l1.923-108.907l-1.648-0.273L170.27,448.28h-46.168L88.376,338.826H87.002z"/>
</g>
<g>
	<path fill="#010202" d="M325.129,338.826l3.023,109.454h-61.008V254.546h85.466l35.176,104.255h1.374l30.504-104.255h88.214V448.28
		h-63.481l1.924-108.907l-1.649-0.273L408.397,448.28h-46.168l-35.726-109.454H325.129z"/>
</g>
<g>
	<path fill="#FFFFFF" d="M273.188,384.233v60.356h-63.011V257.166h80.824c38.285,0,77.102,14.56,77.102,63.005
		c0,46.327-38.019,64.063-77.102,64.063L273.188,384.233L273.188,384.233z M273.188,306.14v30.18h13.294
		c9.571,0,19.143-4.5,19.143-15.619c0-11.913-9.571-14.561-19.143-14.561H273.188L273.188,306.14z"/>
	<path d="M275.188,446.59h-67.011V255.166h82.824c21.972,0,40.652,4.728,54.02,13.673c16.643,11.137,25.082,28.407,25.082,51.332
		c0,48.709-40.862,66.063-79.102,66.063h-15.813V446.59z M212.177,442.59h59.011v-60.355h19.813
		c36.307,0,75.102-16.304,75.102-62.063c0-53.08-47.054-61.005-75.102-61.005h-78.824V442.59z M286.482,338.319h-15.294v-34.18
		h15.294c17.475,0,21.143,9.006,21.143,16.561C307.625,333.705,296.235,338.319,286.482,338.319z M275.188,334.319h11.294
		c8.288,0,17.143-3.578,17.143-13.619c0-5.392-1.777-12.561-17.143-12.561h-11.294V334.319z"/>
</g>
<g>
	<path fill="#010202" d="M573.221,287.981h0.123l12.91-33.46h9.512v43.548h-6.114v-36.413h-0.123l-14.517,36.413h-3.891
		l-14.454-36.413h-0.124v36.413h-5.93v-43.548h9.513L573.221,287.981z"/>
	<path fill="#010202" d="M606.08,281.954v-27.433h6.115v27.063c0,5.966,2.718,12.117,10.871,12.117
		c8.152,0,10.87-6.151,10.87-12.117v-27.063h6.115v27.433c0,8.919-5.436,17.222-16.985,17.222
		C611.516,299.176,606.08,290.873,606.08,281.954z"/>
	<path fill="#010202" d="M672.109,262.579c-1.73-2.399-4.881-4.06-8.524-4.06c-3.953,0-8.524,2.153-8.524,7.074
		c0,4.736,4.017,6.027,8.957,7.627c5.867,1.845,12.849,4.06,12.849,12.732c0,9.042-7.352,13.224-15.133,13.224
		c-5.498,0-11.058-2.152-14.394-6.335l4.756-3.998c2.039,3.014,5.745,5.105,9.761,5.105c4.075,0,8.771-2.276,8.771-7.442
		c0-5.29-4.818-6.705-10.377-8.427c-5.56-1.722-11.365-4.244-11.365-12.24c0-8.672,7.782-12.424,15.009-12.424
		c5.065,0,9.821,1.968,12.539,4.982L672.109,262.579z"/>
	<path fill="#010202" d="M691.626,298.069h-6.114v-43.548h6.114V298.069z"/>
	<path fill="#010202" d="M739.743,291.303c-3.397,4.613-9.019,7.873-16.677,7.873c-13.404,0-23.039-9.534-23.039-22.942
		c0-13.593,10.006-22.819,23.285-22.819c5.991,0,12.478,2.337,15.688,6.766l-4.817,3.69c-2.101-2.952-6.361-5.105-10.871-5.105
		c-10.13,0-16.615,7.935-16.615,17.468c0,9.78,6.361,17.53,16.431,17.53c4.88,0,9.142-2.03,11.735-5.782L739.743,291.303z"/>
	<path fill="#010202" d="M550.613,328.325h13.342c9.451,0,15.628,3.629,15.628,12.117c0,8.733-6.856,12.302-15.938,12.302h-6.918
		v19.129h-6.114V328.325L550.613,328.325z M556.729,347.577h6.486c5.991,0,10.191-1.968,10.191-7.135
		c0-5.229-4.324-6.95-10.068-6.95h-6.609V347.577z"/>
	<path fill="#010202" d="M593.479,366.46h22.854v5.413h-28.969v-43.548h28.042v5.351h-21.928v13.04h20.631v5.229h-20.631V366.46
		L593.479,366.46z"/>
	<path fill="#010202" d="M630.601,371.873h-6.113v-43.548h14.021c8.462,0,15.565,3.198,15.565,12.056
		c0,6.397-4.386,10.457-10.624,11.502l12.229,19.99h-7.412l-11.117-19.375h-6.549V371.873z M630.601,347.393h7.042
		c5.744,0,10.254-1.783,10.254-7.012c0-5.228-4.51-6.889-9.821-6.889h-7.475V347.393z"/>
	<path fill="#010202" d="M668.525,371.873h-6.115v-43.548h27.302v5.351h-21.187v13.532h19.828v5.228h-19.828V371.873z"/>
	<path fill="#010202" d="M718.372,372.98c-13.28,0-23.101-9.534-23.101-22.943c0-13.593,9.819-22.819,23.101-22.819
		c13.342,0,23.225,9.227,23.225,22.819C741.597,363.446,731.714,372.98,718.372,372.98z M718.372,332.569
		c-10.068,0-16.492,7.935-16.492,17.468c0,9.718,6.485,17.468,16.492,17.468c10.13,0,16.615-7.75,16.615-17.468
		C734.987,340.504,728.563,332.569,718.372,332.569z"/>
	<path fill="#010202" d="M756.049,371.873h-6.115v-43.548h14.021c8.463,0,15.564,3.198,15.564,12.056
		c0,6.397-4.386,10.457-10.623,11.502l12.229,19.99h-7.412l-11.118-19.375h-6.548L756.049,371.873L756.049,371.873z
		 M756.049,347.393h7.042c5.744,0,10.253-1.783,10.253-7.012c0-5.228-4.509-6.889-9.819-6.889h-7.476V347.393z"/>
	<path fill="#010202" d="M810.466,361.786h0.124l12.909-33.46h9.512v43.548h-6.113V335.46h-0.124l-14.517,36.413h-3.892
		l-14.453-36.413h-0.123v36.413h-5.93v-43.548h9.512L810.466,361.786z"/>
	<path fill="#010202" d="M845.427,371.873h-6.795l18.963-43.548h5.561l18.776,43.548h-6.918l-4.446-10.703h-20.755L845.427,371.873z
		 M851.974,355.819h16.368l-8.151-20.42L851.974,355.819z"/>
	<path fill="#010202" d="M918.373,363.139h0.124v-34.813h6.114v43.548h-7.722l-23.101-35.552h-0.124v35.552h-6.115v-43.548h7.969
		L918.373,363.139z"/>
	<path fill="#010202" d="M972.729,365.107c-3.397,4.612-9.019,7.873-16.678,7.873c-13.404,0-23.039-9.534-23.039-22.943
		c0-13.593,10.006-22.819,23.286-22.819c5.991,0,12.478,2.337,15.688,6.767l-4.817,3.689c-2.101-2.952-6.362-5.104-10.871-5.104
		c-10.13,0-16.616,7.935-16.616,17.468c0,9.78,6.362,17.53,16.432,17.53c4.88,0,9.142-2.029,11.734-5.782L972.729,365.107z"/>
	<path fill="#010202" d="M985.08,366.46h22.854v5.413h-28.97v-43.548h28.043v5.351H985.08v13.04h20.631v5.229H985.08V366.46z"/>
	<path fill="#010202" d="M573.221,435.59h0.123l12.91-33.461h9.512v43.548h-6.114v-36.413h-0.123l-14.517,36.413h-3.891
		l-14.454-36.413h-0.124v36.413h-5.93v-43.548h9.513L573.221,435.59z"/>
	<path fill="#010202" d="M608.181,445.677h-6.795l18.963-43.548h5.561l18.776,43.548h-6.918l-4.446-10.702h-20.754L608.181,445.677z
		 M614.729,429.623h16.367l-8.151-20.421L614.729,429.623z"/>
	<path fill="#010202" d="M656.42,445.677h-6.115v-43.548h14.021c8.463,0,15.564,3.198,15.564,12.056
		c0,6.396-4.386,10.456-10.624,11.503l12.23,19.989h-7.412l-11.118-19.375h-6.548L656.42,445.677L656.42,445.677z M656.42,421.196
		h7.042c5.744,0,10.253-1.783,10.253-7.013c0-5.229-4.509-6.889-9.82-6.889h-7.475V421.196z"/>
	<path fill="#010202" d="M694.346,421.319h0.124l19.52-19.19h8.462l-21.248,19.929l22.545,23.619h-8.771l-20.507-22.512h-0.124
		v22.512h-6.115v-43.548h6.115V421.319L694.346,421.319z"/>
	<path fill="#010202" d="M728.626,429.563v-27.434h6.115v27.063c0,5.967,2.718,12.116,10.871,12.116
		c8.152,0,10.87-6.149,10.87-12.116v-27.063h6.115v27.434c0,8.919-5.436,17.223-16.985,17.223
		C734.062,446.785,728.626,438.48,728.626,429.563z"/>
	<path fill="#010202" d="M772.912,402.129h13.342c9.451,0,15.628,3.629,15.628,12.117c0,8.734-6.855,12.302-15.937,12.302h-6.918
		v19.129h-6.115V402.129L772.912,402.129z M779.027,421.381h6.485c5.991,0,10.191-1.968,10.191-7.135
		c0-5.229-4.324-6.95-10.068-6.95h-6.608V421.381z"/>
</g>
</svg>
