<?xml version="1.0" encoding="utf-8"?>
<!-- Generator: Adobe Illustrator 16.0.0, SVG Export Plug-In . SVG Version: 6.00 Build 0)  -->
<!DOCTYPE svg PUBLIC "-//W3C//DTD SVG 1.1//EN" "http://www.w3.org/Graphics/SVG/1.1/DTD/svg11.dtd">
<svg version="1.1" id="Layer_1" xmlns="http://www.w3.org/2000/svg" xmlns:xlink="http://www.w3.org/1999/xlink" x="0px" y="0px"
	 width="1031.811px" height="728.5px" viewBox="0 0 1031.811 728.5" enable-background="new 0 0 1031.811 728.5"
	 xml:space="preserve">
<g>
	<path fill="#FFFFFF" d="M84.908,338.206l3.038,109.991h-61.31V253.512h85.889l35.35,104.767h1.381l30.655-104.767h88.65v194.685
		h-63.795l1.933-109.441l-1.657-0.274l-36.455,109.716h-46.396L86.289,338.206H84.908z"/>
</g>
<g>
	<path fill="#FFFFFF" d="M324.213,338.206l3.038,109.991h-61.31V253.512h85.889l35.35,104.767h1.381l30.655-104.767h88.65v194.685
		h-63.795l1.933-109.441l-1.657-0.274l-36.455,109.716h-46.396l-35.902-109.991H324.213z"/>
</g>
<g>
	<g>
		<path d="M272.517,385.041v60.656h-63.322V257.343h81.223c38.474,0,77.483,14.632,77.483,63.316
			c0,46.557-38.207,64.381-77.483,64.381L272.517,385.041L272.517,385.041z M272.517,306.56v30.328h13.359
			c9.619,0,19.237-4.521,19.237-15.695c0-11.973-9.619-14.633-19.237-14.633H272.517z"/>
		<path fill="#FFFFFF" d="M274.517,447.697h-67.322V255.343h83.223c22.078,0,40.849,4.751,54.281,13.739
			c16.723,11.19,25.202,28.543,25.202,51.577c0,48.942-41.059,66.381-79.483,66.381h-15.901V447.697z M211.195,443.697h59.322
			v-60.656l19.901-0.001c36.491,0,75.483-16.388,75.483-62.381c0-53.351-47.292-61.316-75.483-61.316h-79.223V443.697z
			 M285.876,338.888h-15.359V304.56h15.359c17.552,0,21.237,9.045,21.237,16.633C307.113,334.253,295.673,338.888,285.876,338.888z
			 M274.517,334.888h11.359c8.333,0,17.237-3.598,17.237-13.695c0-5.423-1.787-12.633-17.237-12.633h-11.359V334.888z"/>
	</g>
</g>
<g>
	<path fill="#FFFFFF" d="M573.533,287.105h0.124l12.974-33.626h9.561v43.764h-6.146v-36.594h-0.124l-14.587,36.594h-3.911
		l-14.523-36.594h-0.125v36.594h-5.959v-43.764h9.56L573.533,287.105z"/>
	<path fill="#FFFFFF" d="M606.557,281.047v-27.568h6.146v27.198c0,5.996,2.73,12.177,10.925,12.177s10.925-6.182,10.925-12.177
		v-27.198h6.146v27.568c0,8.963-5.463,17.309-17.07,17.309C612.021,298.355,606.557,290.01,606.557,281.047z"/>
	<path fill="#FFFFFF" d="M672.91,261.576c-1.737-2.411-4.903-4.08-8.565-4.08c-3.973,0-8.565,2.164-8.565,7.108
		c0,4.76,4.035,6.058,9.001,7.665c5.896,1.854,12.911,4.08,12.911,12.795c0,9.086-7.388,13.291-15.208,13.291
		c-5.524,0-11.111-2.165-14.464-6.368l4.779-4.018c2.049,3.029,5.772,5.13,9.809,5.13c4.097,0,8.813-2.287,8.813-7.479
		c0-5.316-4.842-6.737-10.429-8.468c-5.586-1.731-11.421-4.265-11.421-12.301c0-8.716,7.82-12.486,15.084-12.486
		c5.09,0,9.868,1.978,12.601,5.007L672.91,261.576z"/>
	<path fill="#FFFFFF" d="M692.524,297.242h-6.146v-43.764h6.146V297.242z"/>
	<path fill="#FFFFFF" d="M740.88,290.443c-3.414,4.636-9.063,7.913-16.76,7.913c-13.47,0-23.153-9.582-23.153-23.058
		c0-13.661,10.057-22.933,23.401-22.933c6.021,0,12.539,2.349,15.767,6.799l-4.842,3.709c-2.11-2.967-6.394-5.13-10.925-5.13
		c-10.18,0-16.697,7.974-16.697,17.555c0,9.829,6.395,17.617,16.511,17.617c4.904,0,9.188-2.04,11.794-5.81L740.88,290.443z"/>
	<path fill="#FFFFFF" d="M550.814,327.647h13.407c9.497,0,15.704,3.646,15.704,12.177c0,8.776-6.89,12.361-16.015,12.361h-6.952
		v19.225h-6.146v-43.763H550.814z M556.96,346.995h6.519c6.021,0,10.241-1.979,10.241-7.17c0-5.254-4.345-6.985-10.118-6.985h-6.642
		V346.995z"/>
	<path fill="#FFFFFF" d="M593.893,365.972h22.968v5.439h-29.112v-43.765h28.182v5.378h-22.036v13.104h20.732v5.254h-20.732
		L593.893,365.972L593.893,365.972z"/>
	<path fill="#FFFFFF" d="M631.197,371.411h-6.146v-43.764h14.091c8.505,0,15.644,3.214,15.644,12.114
		c0,6.43-4.407,10.508-10.677,11.56l12.29,20.089h-7.448l-11.173-19.471h-6.58V371.411z M631.197,346.81h7.076
		c5.772,0,10.305-1.793,10.305-7.047s-4.531-6.923-9.87-6.923h-7.511V346.81z"/>
	<path fill="#FFFFFF" d="M669.311,371.411h-6.146v-43.764h27.437v5.377h-21.291v13.599h19.927v5.254h-19.927V371.411z"/>
	<path fill="#FFFFFF" d="M719.402,372.523c-13.346,0-23.216-9.581-23.216-23.057c0-13.661,9.87-22.933,23.216-22.933
		c13.407,0,23.34,9.271,23.34,22.933C742.742,362.943,732.811,372.523,719.402,372.523z M719.402,331.913
		c-10.117,0-16.573,7.974-16.573,17.555c0,9.768,6.518,17.556,16.573,17.556c10.181,0,16.697-7.789,16.697-17.556
		C736.101,339.886,729.645,331.913,719.402,331.913z"/>
	<path fill="#FFFFFF" d="M757.267,371.411h-6.146v-43.764h14.091c8.504,0,15.644,3.214,15.644,12.114
		c0,6.43-4.407,10.508-10.678,11.56l12.29,20.089h-7.448l-11.173-19.471h-6.58V371.411z M757.267,346.81h7.076
		c5.772,0,10.306-1.793,10.306-7.047s-4.532-6.923-9.87-6.923h-7.512V346.81z"/>
	<path fill="#FFFFFF" d="M811.952,361.274h0.124l12.974-33.626h9.561v43.764h-6.146v-36.594h-0.124l-14.587,36.594h-3.911
		l-14.524-36.594h-0.124v36.594h-5.959v-43.764h9.56L811.952,361.274z"/>
	<path fill="#FFFFFF" d="M847.086,371.411h-6.828l19.058-43.764h5.586l18.87,43.764h-6.952l-4.47-10.755h-20.855L847.086,371.411z
		 M853.665,355.278h16.449l-8.193-20.522L853.665,355.278z"/>
	<path fill="#FFFFFF" d="M920.393,362.634h0.124v-34.985h6.146v43.764h-7.759l-23.216-35.729h-0.124v35.729h-6.146v-43.764h8.008
		L920.393,362.634z"/>
	<path fill="#FFFFFF" d="M975.018,364.612c-3.414,4.636-9.063,7.912-16.761,7.912c-13.47,0-23.153-9.581-23.153-23.057
		c0-13.661,10.057-22.933,23.401-22.933c6.021,0,12.539,2.349,15.767,6.799l-4.842,3.709c-2.109-2.967-6.394-5.13-10.925-5.13
		c-10.18,0-16.696,7.974-16.696,17.555c0,9.829,6.394,17.617,16.511,17.617c4.903,0,9.188-2.04,11.794-5.81L975.018,364.612z"/>
	<path fill="#FFFFFF" d="M987.43,365.972h22.967v5.439h-29.111v-43.765h28.182v5.378H987.43v13.104h20.732v5.254H987.43V365.972z"/>
	<path fill="#FFFFFF" d="M573.533,435.442h0.124l12.974-33.626h9.561v43.764h-6.146v-36.594h-0.124l-14.587,36.594h-3.911
		l-14.523-36.594h-0.125v36.594h-5.959v-43.764h9.56L573.533,435.442z"/>
	<path fill="#FFFFFF" d="M608.667,445.58h-6.828l19.056-43.764h5.588l18.869,43.764H638.4l-4.47-10.756h-20.855L608.667,445.58z
		 M615.246,429.447h16.449l-8.193-20.522L615.246,429.447z"/>
	<path fill="#FFFFFF" d="M657.145,445.58h-6.146v-43.764h14.091c8.504,0,15.644,3.214,15.644,12.114
		c0,6.43-4.407,10.509-10.678,11.561l12.29,20.089h-7.447l-11.174-19.472h-6.58V445.58z M657.145,420.979h7.076
		c5.773,0,10.306-1.793,10.306-7.047s-4.531-6.923-9.87-6.923h-7.512V420.979z"/>
	<path fill="#FFFFFF" d="M695.258,421.102h0.124l19.615-19.284h8.504l-21.353,20.026l22.655,23.736h-8.813l-20.608-22.624h-0.124
		v22.624h-6.146v-43.764h6.146V421.102z"/>
	<path fill="#FFFFFF" d="M729.708,429.385v-27.567h6.146v27.196c0,5.996,2.73,12.179,10.925,12.179
		c8.193,0,10.925-6.183,10.925-12.179v-27.196h6.146v27.567c0,8.963-5.463,17.309-17.069,17.309
		C735.172,446.693,729.708,438.348,729.708,429.385z"/>
	<path fill="#FFFFFF" d="M774.213,401.816h13.408c9.497,0,15.704,3.646,15.704,12.177c0,8.776-6.891,12.363-16.016,12.363h-6.951
		v19.224h-6.146L774.213,401.816L774.213,401.816z M780.358,421.164h6.518c6.021,0,10.242-1.979,10.242-7.171
		c0-5.254-4.345-6.984-10.118-6.984h-6.642V421.164z"/>
</g>
</svg>
